<mxfile host="app.diagrams.net" agent="Mozilla/5.0 (Windows NT 10.0; Win64; x64) AppleWebKit/537.36 (KHTML, like Gecko) Chrome/129.0.0.0 Safari/537.36" version="24.7.8">
  <diagram name="第 1 页" id="TGypnsFDoZplq9Hz1j6t">
    <mxGraphModel dx="1434" dy="841" grid="0" gridSize="10" guides="1" tooltips="1" connect="1" arrows="1" fold="1" page="0" pageScale="1" pageWidth="3300" pageHeight="4681" math="0" shadow="0">
      <root>
        <mxCell id="0" />
        <mxCell id="1" parent="0" />
        <mxCell id="rbxUUjU9S7yHSoXGGBeZ-4" value="" style="edgeStyle=orthogonalEdgeStyle;rounded=0;orthogonalLoop=1;jettySize=auto;html=1;" edge="1" parent="1" source="rbxUUjU9S7yHSoXGGBeZ-2" target="rbxUUjU9S7yHSoXGGBeZ-3">
          <mxGeometry relative="1" as="geometry" />
        </mxCell>
        <mxCell id="rbxUUjU9S7yHSoXGGBeZ-2" value="HTTP流量" style="rounded=0;whiteSpace=wrap;html=1;" vertex="1" parent="1">
          <mxGeometry x="396" y="258" width="185" height="60" as="geometry" />
        </mxCell>
        <mxCell id="rbxUUjU9S7yHSoXGGBeZ-3" value="" style="whiteSpace=wrap;html=1;rounded=0;" vertex="1" parent="1">
          <mxGeometry x="119" y="370" width="739" height="136" as="geometry" />
        </mxCell>
        <mxCell id="rbxUUjU9S7yHSoXGGBeZ-13" value="" style="edgeStyle=orthogonalEdgeStyle;rounded=0;orthogonalLoop=1;jettySize=auto;html=1;" edge="1" parent="1" source="rbxUUjU9S7yHSoXGGBeZ-5" target="rbxUUjU9S7yHSoXGGBeZ-8">
          <mxGeometry relative="1" as="geometry" />
        </mxCell>
        <mxCell id="rbxUUjU9S7yHSoXGGBeZ-5" value="&lt;font face=&quot;Helvetica&quot;&gt;数据采集与处理&lt;/font&gt;" style="rounded=0;whiteSpace=wrap;html=1;" vertex="1" parent="1">
          <mxGeometry x="158" y="414.75" width="129" height="46.5" as="geometry" />
        </mxCell>
        <mxCell id="rbxUUjU9S7yHSoXGGBeZ-7" value="&lt;b&gt;特征检测与规则生成&lt;/b&gt;" style="text;html=1;whiteSpace=wrap;overflow=hidden;rounded=0;align=center;" vertex="1" parent="1">
          <mxGeometry x="362" y="373" width="223" height="26" as="geometry" />
        </mxCell>
        <mxCell id="rbxUUjU9S7yHSoXGGBeZ-14" value="" style="edgeStyle=orthogonalEdgeStyle;rounded=0;orthogonalLoop=1;jettySize=auto;html=1;" edge="1" parent="1" source="rbxUUjU9S7yHSoXGGBeZ-8" target="rbxUUjU9S7yHSoXGGBeZ-9">
          <mxGeometry relative="1" as="geometry" />
        </mxCell>
        <mxCell id="rbxUUjU9S7yHSoXGGBeZ-8" value="&lt;p class=&quot;MsoNormal&quot;&gt;特征提取&lt;/p&gt;" style="rounded=0;whiteSpace=wrap;html=1;" vertex="1" parent="1">
          <mxGeometry x="335" y="414.75" width="129" height="46.5" as="geometry" />
        </mxCell>
        <mxCell id="rbxUUjU9S7yHSoXGGBeZ-15" value="" style="edgeStyle=orthogonalEdgeStyle;rounded=0;orthogonalLoop=1;jettySize=auto;html=1;" edge="1" parent="1" source="rbxUUjU9S7yHSoXGGBeZ-9" target="rbxUUjU9S7yHSoXGGBeZ-10">
          <mxGeometry relative="1" as="geometry" />
        </mxCell>
        <mxCell id="rbxUUjU9S7yHSoXGGBeZ-9" value="特征匹配" style="rounded=0;whiteSpace=wrap;html=1;" vertex="1" parent="1">
          <mxGeometry x="517" y="414.75" width="129" height="46.5" as="geometry" />
        </mxCell>
        <mxCell id="rbxUUjU9S7yHSoXGGBeZ-10" value="决策与响应" style="rounded=0;whiteSpace=wrap;html=1;" vertex="1" parent="1">
          <mxGeometry x="699" y="414.75" width="129" height="46.5" as="geometry" />
        </mxCell>
        <mxCell id="rbxUUjU9S7yHSoXGGBeZ-16" value="" style="whiteSpace=wrap;html=1;rounded=0;" vertex="1" parent="1">
          <mxGeometry x="117" y="550" width="739" height="136" as="geometry" />
        </mxCell>
      </root>
    </mxGraphModel>
  </diagram>
</mxfile>
